<?xml version="1.0" encoding="UTF-8" standalone="no"?>
<!-- Created with Inkscape (http://www.inkscape.org/) -->

<svg
   xmlns:dc="http://purl.org/dc/elements/1.1/"
   xmlns:cc="http://creativecommons.org/ns#"
   xmlns:rdf="http://www.w3.org/1999/02/22-rdf-syntax-ns#"
   xmlns:svg="http://www.w3.org/2000/svg"
   xmlns="http://www.w3.org/2000/svg"
   xmlns:sodipodi="http://sodipodi.sourceforge.net/DTD/sodipodi-0.dtd"
   xmlns:inkscape="http://www.inkscape.org/namespaces/inkscape"
   width="101.91945mm"
   height="89.046783mm"
   viewBox="0 0 361.13191 315.5201"
   id="svg2"
   version="1.1"
   inkscape:version="0.91 r13725"
   sodipodi:docname="ferris-belgium.svg"
   inkscape:export-filename="/Volumes/FilesOSX/Users/azerupi/Documents/Rust-belgium/ferris-belgium.png"
   inkscape:export-xdpi="200"
   inkscape:export-ydpi="200">
  <defs
     id="defs4">
    <clipPath
       id="clipPath4169"
       clipPathUnits="userSpaceOnUse">
      <path
         inkscape:connector-curvature="0"
         id="path4171"
         d="M 0,800 1200,800 1200,0 0,0 0,800 Z" />
    </clipPath>
    <clipPath
       clipPathUnits="userSpaceOnUse"
       id="clipPath4444">
      <path
         style="opacity:1;fill:#3d3733;fill-opacity:1;stroke:none;stroke-width:3;stroke-linecap:butt;stroke-linejoin:round;stroke-miterlimit:4;stroke-dasharray:none;stroke-dashoffset:0;stroke-opacity:1"
         inkscape:transform-center-x="-34.87132"
         d="m 550.75094,119.48511 c 0,0 -11.48397,13.69441 -36.62215,11.98646 -24.03586,-1.63305 -55.81843,-1.50698 -88.18777,5.23515 C 359.7178,150.50018 347.56849,189.713 298.31727,201.82193 249.06606,213.93085 177.94639,189.59174 131.02662,231.958 84.106858,274.32429 -2.385516e-5,286.9707 -2.385516e-5,286.9707 l 0,-281.6873055 c 0,0 74.95960985516,65.9924985 125.84606385516,46.3494205 50.8864,-19.643077 111.52715,47.589136 162.11011,48.187595 50.58297,0.59848 73.29415,-15.11901 137.98487,-10.782345 31.76547,2.129456 63.67779,13.686615 87.93353,24.899355 25.14145,11.62214 36.87639,5.54769 36.87639,5.54769 z"
         id="path4446"
         inkscape:connector-curvature="0"
         sodipodi:nodetypes="csszzcczzssc" />
    </clipPath>
  </defs>
  <sodipodi:namedview
     id="base"
     pagecolor="#ffffff"
     bordercolor="#666666"
     borderopacity="1.0"
     inkscape:pageopacity="0.0"
     inkscape:pageshadow="2"
     inkscape:zoom="0.49497475"
     inkscape:cx="401.006"
     inkscape:cy="-95.631387"
     inkscape:document-units="px"
     inkscape:current-layer="g4167"
     showgrid="false"
     inkscape:window-width="1920"
     inkscape:window-height="955"
     inkscape:window-x="0"
     inkscape:window-y="1"
     inkscape:window-maximized="1"
     fit-margin-top="0"
     fit-margin-left="0"
     fit-margin-right="0"
     fit-margin-bottom="0" />
  <metadata
     id="metadata7">
    <rdf:RDF>
      <cc:Work
         rdf:about="">
        <dc:format>image/svg+xml</dc:format>
        <dc:type
           rdf:resource="http://purl.org/dc/dcmitype/StillImage" />
        <dc:title></dc:title>
      </cc:Work>
    </rdf:RDF>
  </metadata>
  <g
     inkscape:groupmode="layer"
     id="layer3"
     inkscape:label="Flag"
     transform="translate(-169.62966,-396.71014)">
    <rect
       style="opacity:1;fill:#85634d;fill-opacity:1;stroke:none;stroke-width:3;stroke-linecap:butt;stroke-linejoin:round;stroke-miterlimit:4;stroke-dasharray:none;stroke-dashoffset:0;stroke-opacity:1"
       id="rect4339"
       width="7.0710678"
       height="142.99966"
       x="332.7316"
       y="396.71014" />
    <path
       style="opacity:1;fill:#3d3733;fill-opacity:1;stroke:none;stroke-width:3;stroke-linecap:butt;stroke-linejoin:round;stroke-miterlimit:4;stroke-dasharray:none;stroke-dashoffset:0;stroke-opacity:1"
       d="m 325.8289,538.19453 20.87649,0 8.75465,19.1929 -38.38579,0 z"
       id="rect4336"
       inkscape:connector-curvature="0"
       sodipodi:nodetypes="ccccc" />
    <g
       id="g4407"
       transform="matrix(0.3446941,0,0,0.28857452,340.92098,397.78869)"
       clip-path="url(#clipPath4444)">
      <rect
         id="rect4395"
         height="390"
         width="586.27185"
         x="0"
         y="0"
         style="fill:#ed2939" />
      <rect
         id="rect4397"
         height="390"
         width="339.80701"
         x="0"
         y="0"
         style="fill:#fae042" />
      <rect
         id="rect4399"
         height="390"
         width="150"
         x="0"
         y="0" />
    </g>
  </g>
  <g
     inkscape:groupmode="layer"
     id="layer2"
     inkscape:label="Ferris"
     transform="translate(-169.62966,-396.71014)">
    <g
       transform="matrix(0.28035679,0,0,-0.28035679,162.10998,722.75394)"
       inkscape:label="rustacean-flat-happy"
       id="g4163">
      <g
         id="g4165">
        <g
           clip-path="url(#clipPath4169)"
           id="g4167">
          <g
             id="g4232"
             transform="translate(13.714286,-59.428571)">
            <g
               id="g4173"
               transform="translate(1009.3994,300.8408)">
              <path
                 d="m 0,0 -12.072,25.006 c 0.063,0.947 0.111,1.898 0.111,2.853 0,28.346 -29.478,54.471 -79.069,75.389 l 0,-17.393 c -4.836,1.919 -9.871,3.787 -15.117,5.593 l 0,8.108 c -70.874,25.56 -176.383,41.778 -294.241,41.778 -102.973,0 -196.529,-12.38 -265.791,-32.554 l 0,-28.246 -0.002,0 0,34.188 c -70.96,-22.55 -114.954,-53.877 -114.954,-88.515 0,-5.46 1.101,-10.838 3.217,-16.113 l -7.228,-12.867 c 0,0 -5.792,-7.512 4.406,-23.362 8.994,-13.977 54.048,-68.685 77.827,-97.335 10.214,-14.687 17.141,-23.734 17.746,-22.859 0.955,1.386 -6.351,28.961 -26.635,60.423 -9.466,16.895 -20.768,39.283 -27.554,55.819 18.942,-11.99 130.23,-68.029 357.232,-67.801 231.994,0.232 335.115,72.851 346.433,82.737 -3.955,-15.889 -17.468,-48.033 -28.245,-70.638 -17.706,-32.331 -24.12,-60.478 -23.296,-61.87 0.524,-0.878 6.565,8.441 15.476,23.543 20.731,29.543 60.017,85.939 67.867,100.305 C 5.007,-7.526 0,0 0,0"
                 style="fill:#a52b00;fill-opacity:1;fill-rule:nonzero;stroke:none"
                 id="path4175"
                 inkscape:connector-curvature="0" />
            </g>
            <g
               id="g4177"
               transform="translate(1079.4854,300.9805)">
              <path
                 d="m 0,0 -79.343,58.446 c -0.745,2.6 -1.49,5.201 -2.26,7.781 l 26.062,37.754 c 2.66,3.84 3.196,8.832 1.469,13.211 -1.731,4.358 -5.515,7.482 -9.99,8.247 l -44.066,7.479 c -1.709,3.485 -3.498,6.916 -5.294,10.319 l 18.515,42.388 c 1.903,4.317 1.505,9.335 -1.022,13.254 -2.517,3.937 -6.786,6.237 -11.338,6.058 l -44.724,-1.625 c -2.315,3.016 -4.667,6.003 -7.067,8.937 l 10.278,45.432 c 1.042,4.612 -0.274,9.443 -3.487,12.794 -3.195,3.339 -7.838,4.722 -12.253,3.639 l -43.562,-10.709 c -2.82,2.493 -5.688,4.953 -8.588,7.365 l 1.567,46.641 c 0.168,4.721 -2.033,9.208 -5.812,11.829 -3.777,2.636 -8.57,3.032 -12.701,1.074 l -40.638,-19.321 c -3.273,1.878 -6.565,3.737 -9.892,5.537 l -7.181,45.961 c -0.729,4.656 -3.724,8.612 -7.919,10.418 -4.185,1.817 -8.976,1.228 -12.648,-1.536 l -36.232,-27.185 c -3.569,1.185 -7.153,2.32 -10.779,3.407 l -15.617,43.585 c -1.588,4.443 -5.25,7.706 -9.716,8.624 -4.45,0.909 -9.028,-0.632 -12.114,-4.08 l -30.499,-34.119 c -3.685,0.423 -7.377,0.81 -11.076,1.131 l -23.549,39.676 c -2.384,4.018 -6.597,6.464 -11.139,6.464 -4.529,0 -8.75,-2.446 -11.118,-6.464 l -23.555,-39.676 c -3.701,-0.321 -7.408,-0.708 -11.088,-1.131 l -30.499,34.119 c -3.09,3.448 -7.684,4.989 -12.122,4.08 -4.46,-0.93 -8.128,-4.181 -9.707,-8.624 l -15.629,-43.585 c -3.621,-1.087 -7.205,-2.23 -10.78,-3.407 l -36.22,27.185 c -3.683,2.774 -8.478,3.361 -12.668,1.536 -4.181,-1.806 -7.188,-5.762 -7.913,-10.418 L -661.1,316.53 c -3.322,-1.8 -6.614,-3.649 -9.895,-5.537 l -40.634,19.321 c -4.127,1.966 -8.945,1.562 -12.704,-1.074 -3.773,-2.621 -5.98,-7.108 -5.81,-11.829 l 1.562,-46.641 c -2.894,-2.412 -5.756,-4.872 -8.591,-7.365 l -43.554,10.709 c -4.423,1.074 -9.062,-0.3 -12.265,-3.639 -3.221,-3.351 -4.526,-8.182 -3.491,-12.794 l 10.257,-45.432 c -2.378,-2.945 -4.733,-5.921 -7.042,-8.937 l -44.724,1.625 c -4.513,0.135 -8.821,-2.121 -11.343,-6.058 -2.527,-3.919 -2.91,-8.937 -1.029,-13.254 l 18.528,-42.388 c -1.799,-3.403 -3.586,-6.834 -5.309,-10.319 l -44.063,-7.479 c -4.479,-0.754 -8.252,-3.876 -9.994,-8.247 -1.728,-4.379 -1.167,-9.371 1.474,-13.211 l 26.066,-37.754 c -0.201,-0.667 -0.387,-1.339 -0.587,-2.008 l -73.696,-78.285 c 0,0 -11.296,-8.851 5.147,-29.654 14.5,-18.351 88.951,-91.096 128.271,-129.205 16.606,-19.348 27.984,-31.329 29.172,-30.293 1.876,1.645 -7.972,36.847 -40.682,78.149 -25.216,37.056 -57.941,94.049 -50.267,100.618 0,0 8.729,11.081 26.242,19.057 0.641,-0.512 -0.662,0.507 0,0 0,0 369.595,-170.491 712.429,-2.884 39.164,7.025 62.873,-13.955 62.873,-13.955 8.176,-4.74 -12.996,-63.344 -30.407,-102.137 -23.679,-44.05 -27.151,-78.422 -25.144,-79.614 1.268,-0.757 9.883,12.353 22.172,33.217 C -67.814,-128.514 -10.492,-47.965 0,-28.399 11.895,-6.217 0,0 0,0"
                 style="fill:#f74c00;fill-opacity:1;fill-rule:nonzero;stroke:none"
                 id="path4179"
                 inkscape:connector-curvature="0" />
            </g>
            <g
               id="g4181"
               transform="translate(917.8965,322.8555)">
              <path
                 d="m 0,0 c 0,0 53.179,2.466 123.032,73.462 l 9.898,21.979 c 0,0 -108.417,107.848 60.118,182.291 0,0 -14.755,-24.112 -10.426,-117.272 0,0 50.815,17.649 65.714,99.94 0,0 74.12,-97.724 -80.502,-189.377 0,0 -72.54,-116.289 -174.805,-105.15 L 0,0 Z"
                 style="fill:#f74c00;fill-opacity:1;fill-rule:nonzero;stroke:none"
                 id="path4183"
                 inkscape:connector-curvature="0"
                 mask="none" />
            </g>
            <g
               id="g4185"
               transform="translate(676.9971,389.8311)">
              <path
                 d="m 0,0 c 0,0 36.935,40.443 73.871,0 0,0 29.022,-53.927 0,-80.887 0,0 -47.487,-37.748 -73.871,0 0,0 -31.658,29.659 0,80.887"
                 style="fill:#000000;fill-opacity:1;fill-rule:nonzero;stroke:none"
                 id="path4187"
                 inkscape:connector-curvature="0" />
            </g>
            <g
               id="g4189"
               transform="translate(719.7607,374.8271)">
              <path
                 d="m 0,0 c 0,-15.746 -9.282,-28.514 -20.732,-28.514 -11.448,0 -20.73,12.768 -20.73,28.514 0,15.75 9.282,28.518 20.73,28.518 C -9.282,28.518 0,15.75 0,0"
                 style="fill:#ffffff;fill-opacity:1;fill-rule:nonzero;stroke:none"
                 id="path4191"
                 inkscape:connector-curvature="0" />
            </g>
            <g
               id="g4193"
               transform="translate(512.1484,400.8735)">
              <path
                 d="m 0,0 c 0,0 63.355,28.052 80.648,-34.562 0,0 18.114,-72.98 -52.03,-77.099 0,0 -89.444,17.228 -28.618,111.661"
                 style="fill:#000000;fill-opacity:1;fill-rule:nonzero;stroke:none"
                 id="path4195"
                 inkscape:connector-curvature="0" />
            </g>
            <g
               id="g4197"
               transform="translate(543.9678,373.7939)">
              <path
                 d="m 0,0 c 0,-16.239 -9.572,-29.409 -21.381,-29.409 -11.804,0 -21.379,13.17 -21.379,29.409 0,16.244 9.575,29.411 21.379,29.411 C -9.572,29.411 0,16.244 0,0"
                 style="fill:#ffffff;fill-opacity:1;fill-rule:nonzero;stroke:none"
                 id="path4199"
                 inkscape:connector-curvature="0" />
            </g>
            <g
               id="g4201"
               transform="translate(593.3169,263.6973)">
              <path
                 d="m 0,0 80.796,6.484 c 0,0 -2.738,-13.006 -13.279,-22.769 0,0 -27.79,-30.47 -59.673,2.533 0,0 -5.217,5.629 -7.844,13.752"
                 style="fill:#000000;fill-opacity:1;fill-rule:nonzero;stroke:none"
                 id="path4203"
                 inkscape:connector-curvature="0" />
            </g>
            <g
               id="g4205"
               transform="translate(269.7959,338.4814)">
              <path
                 d="m 0,0 c -0.667,0 -1.321,-0.049 -1.973,-0.101 -26.234,5.971 -99.973,25.185 -119.464,56.363 0,0 99.227,112.872 -55.86,185.019 l 18.057,-124.878 c 0,0 -47.809,31.949 -58.126,101.346 0,0 -116.423,-84.494 51.384,-165.474 0,0 15.22,-57.187 161.349,-102.815 l 0.107,0.435 c 1.471,-0.272 2.977,-0.435 4.526,-0.435 13.808,0 25.003,11.312 25.003,25.271 C 25.003,-11.313 13.808,0 0,0"
                 style="fill:#f74c00;fill-opacity:1;fill-rule:nonzero;stroke:none"
                 id="path4207"
                 inkscape:connector-curvature="0" />
            </g>
          </g>
          <g
             transform="translate(13.714286,-59.428571)"
             id="g4252">
            <g
               transform="translate(1009.3994,300.8408)"
               id="g4254">
              <path
                 inkscape:connector-curvature="0"
                 id="path4256"
                 style="fill:#a52b00;fill-opacity:1;fill-rule:nonzero;stroke:none"
                 d="m 0,0 -12.072,25.006 c 0.063,0.947 0.111,1.898 0.111,2.853 0,28.346 -29.478,54.471 -79.069,75.389 l 0,-17.393 c -4.836,1.919 -9.871,3.787 -15.117,5.593 l 0,8.108 c -70.874,25.56 -176.383,41.778 -294.241,41.778 -102.973,0 -196.529,-12.38 -265.791,-32.554 l 0,-28.246 -0.002,0 0,34.188 c -70.96,-22.55 -114.954,-53.877 -114.954,-88.515 0,-5.46 1.101,-10.838 3.217,-16.113 l -7.228,-12.867 c 0,0 -5.792,-7.512 4.406,-23.362 8.994,-13.977 54.048,-68.685 77.827,-97.335 10.214,-14.687 17.141,-23.734 17.746,-22.859 0.955,1.386 -6.351,28.961 -26.635,60.423 -9.466,16.895 -20.768,39.283 -27.554,55.819 18.942,-11.99 130.23,-68.029 357.232,-67.801 231.994,0.232 335.115,72.851 346.433,82.737 -3.955,-15.889 -17.468,-48.033 -28.245,-70.638 -17.706,-32.331 -24.12,-60.478 -23.296,-61.87 0.524,-0.878 6.565,8.441 15.476,23.543 20.731,29.543 60.017,85.939 67.867,100.305 C 5.007,-7.526 0,0 0,0" />
            </g>
            <g
               transform="translate(1079.4854,300.9805)"
               id="g4258">
              <path
                 inkscape:connector-curvature="0"
                 id="path4260"
                 style="fill:#f74c00;fill-opacity:1;fill-rule:nonzero;stroke:none"
                 d="m 0,0 -79.343,58.446 c -0.745,2.6 -1.49,5.201 -2.26,7.781 l 26.062,37.754 c 2.66,3.84 3.196,8.832 1.469,13.211 -1.731,4.358 -5.515,7.482 -9.99,8.247 l -44.066,7.479 c -1.709,3.485 -3.498,6.916 -5.294,10.319 l 18.515,42.388 c 1.903,4.317 1.505,9.335 -1.022,13.254 -2.517,3.937 -6.786,6.237 -11.338,6.058 l -44.724,-1.625 c -2.315,3.016 -4.667,6.003 -7.067,8.937 l 10.278,45.432 c 1.042,4.612 -0.274,9.443 -3.487,12.794 -3.195,3.339 -7.838,4.722 -12.253,3.639 l -43.562,-10.709 c -2.82,2.493 -5.688,4.953 -8.588,7.365 l 1.567,46.641 c 0.168,4.721 -2.033,9.208 -5.812,11.829 -3.777,2.636 -8.57,3.032 -12.701,1.074 l -40.638,-19.321 c -3.273,1.878 -6.565,3.737 -9.892,5.537 l -7.181,45.961 c -0.729,4.656 -3.724,8.612 -7.919,10.418 -4.185,1.817 -8.976,1.228 -12.648,-1.536 l -36.232,-27.185 c -3.569,1.185 -7.153,2.32 -10.779,3.407 l -15.617,43.585 c -1.588,4.443 -5.25,7.706 -9.716,8.624 -4.45,0.909 -9.028,-0.632 -12.114,-4.08 l -30.499,-34.119 c -3.685,0.423 -7.377,0.81 -11.076,1.131 l -23.549,39.676 c -2.384,4.018 -6.597,6.464 -11.139,6.464 -4.529,0 -8.75,-2.446 -11.118,-6.464 l -23.555,-39.676 c -3.701,-0.321 -7.408,-0.708 -11.088,-1.131 l -30.499,34.119 c -3.09,3.448 -7.684,4.989 -12.122,4.08 -4.46,-0.93 -8.128,-4.181 -9.707,-8.624 l -15.629,-43.585 c -3.621,-1.087 -7.205,-2.23 -10.78,-3.407 l -36.22,27.185 c -3.683,2.774 -8.478,3.361 -12.668,1.536 -4.181,-1.806 -7.188,-5.762 -7.913,-10.418 L -661.1,316.53 c -3.322,-1.8 -6.614,-3.649 -9.895,-5.537 l -40.634,19.321 c -4.127,1.966 -8.945,1.562 -12.704,-1.074 -3.773,-2.621 -5.98,-7.108 -5.81,-11.829 l 1.562,-46.641 c -2.894,-2.412 -5.756,-4.872 -8.591,-7.365 l -43.554,10.709 c -4.423,1.074 -9.062,-0.3 -12.265,-3.639 -3.221,-3.351 -4.526,-8.182 -3.491,-12.794 l 10.257,-45.432 c -2.378,-2.945 -4.733,-5.921 -7.042,-8.937 l -44.724,1.625 c -4.513,0.135 -8.821,-2.121 -11.343,-6.058 -2.527,-3.919 -2.91,-8.937 -1.029,-13.254 l 18.528,-42.388 c -1.799,-3.403 -3.586,-6.834 -5.309,-10.319 l -44.063,-7.479 c -4.479,-0.754 -8.252,-3.876 -9.994,-8.247 -1.728,-4.379 -1.167,-9.371 1.474,-13.211 l 26.066,-37.754 c -0.201,-0.667 -0.387,-1.339 -0.587,-2.008 l -73.696,-78.285 c 0,0 -11.296,-8.851 5.147,-29.654 14.5,-18.351 88.951,-91.096 128.271,-129.205 16.606,-19.348 27.984,-31.329 29.172,-30.293 1.876,1.645 -7.972,36.847 -40.682,78.149 -25.216,37.056 -57.941,94.049 -50.267,100.618 0,0 8.729,11.081 26.242,19.057 0.641,-0.512 -0.662,0.507 0,0 0,0 369.595,-170.491 712.429,-2.884 39.164,7.025 62.873,-13.955 62.873,-13.955 8.176,-4.74 -12.996,-63.344 -30.407,-102.137 -23.679,-44.05 -27.151,-78.422 -25.144,-79.614 1.268,-0.757 9.883,12.353 22.172,33.217 C -67.814,-128.514 -10.492,-47.965 0,-28.399 11.895,-6.217 0,0 0,0" />
            </g>
            <g
               transform="translate(917.8965,322.8555)"
               id="g4262">
              <path
                 inkscape:connector-curvature="0"
                 id="path4264"
                 style="fill:#f74c00;fill-opacity:1;fill-rule:nonzero;stroke:none"
                 d="m 0,0 c 0,0 53.179,2.466 123.032,73.462 l 9.898,21.979 c 0,0 -108.417,107.848 60.118,182.291 0,0 -14.755,-24.112 -10.426,-117.272 0,0 50.815,17.649 65.714,99.94 0,0 74.12,-97.724 -80.502,-189.377 0,0 -72.54,-116.289 -174.805,-105.15 L 0,0 Z" />
            </g>
            <g
               transform="translate(676.9971,389.8311)"
               id="g4266">
              <path
                 inkscape:connector-curvature="0"
                 id="path4268"
                 style="fill:#000000;fill-opacity:1;fill-rule:nonzero;stroke:none"
                 d="m 0,0 c 0,0 36.935,40.443 73.871,0 0,0 29.022,-53.927 0,-80.887 0,0 -47.487,-37.748 -73.871,0 0,0 -31.658,29.659 0,80.887" />
            </g>
            <g
               transform="translate(719.7607,374.8271)"
               id="g4270">
              <path
                 inkscape:connector-curvature="0"
                 id="path4272"
                 style="fill:#ffffff;fill-opacity:1;fill-rule:nonzero;stroke:none"
                 d="m 0,0 c 0,-15.746 -9.282,-28.514 -20.732,-28.514 -11.448,0 -20.73,12.768 -20.73,28.514 0,15.75 9.282,28.518 20.73,28.518 C -9.282,28.518 0,15.75 0,0" />
            </g>
            <g
               transform="translate(512.1484,400.8735)"
               id="g4274">
              <path
                 inkscape:connector-curvature="0"
                 id="path4276"
                 style="fill:#000000;fill-opacity:1;fill-rule:nonzero;stroke:none"
                 d="m 0,0 c 0,0 63.355,28.052 80.648,-34.562 0,0 18.114,-72.98 -52.03,-77.099 0,0 -89.444,17.228 -28.618,111.661" />
            </g>
            <g
               transform="translate(543.9678,373.7939)"
               id="g4278">
              <path
                 inkscape:connector-curvature="0"
                 id="path4280"
                 style="fill:#ffffff;fill-opacity:1;fill-rule:nonzero;stroke:none"
                 d="m 0,0 c 0,-16.239 -9.572,-29.409 -21.381,-29.409 -11.804,0 -21.379,13.17 -21.379,29.409 0,16.244 9.575,29.411 21.379,29.411 C -9.572,29.411 0,16.244 0,0" />
            </g>
            <g
               transform="translate(593.3169,263.6973)"
               id="g4282">
              <path
                 inkscape:connector-curvature="0"
                 id="path4284"
                 style="fill:#000000;fill-opacity:1;fill-rule:nonzero;stroke:none"
                 d="m 0,0 80.796,6.484 c 0,0 -2.738,-13.006 -13.279,-22.769 0,0 -27.79,-30.47 -59.673,2.533 0,0 -5.217,5.629 -7.844,13.752" />
            </g>
            <g
               transform="translate(269.7959,338.4814)"
               id="g4286">
              <path
                 inkscape:connector-curvature="0"
                 id="path4288"
                 style="fill:#f74c00;fill-opacity:1;fill-rule:nonzero;stroke:none"
                 d="m 0,0 c -0.667,0 -1.321,-0.049 -1.973,-0.101 -26.234,5.971 -99.973,25.185 -119.464,56.363 0,0 99.227,112.872 -55.86,185.019 l 18.057,-124.878 c 0,0 -47.809,31.949 -58.126,101.346 0,0 -116.423,-84.494 51.384,-165.474 0,0 15.22,-57.187 161.349,-102.815 l 0.107,0.435 c 1.471,-0.272 2.977,-0.435 4.526,-0.435 13.808,0 25.003,11.312 25.003,25.271 C 25.003,-11.313 13.808,0 0,0" />
            </g>
          </g>
        </g>
      </g>
    </g>
    <g
       inkscape:groupmode="layer"
       id="layer5"
       inkscape:label="Flag clip"
       style="display:none">
      <path
         sodipodi:nodetypes="csszzcczzssc"
         inkscape:connector-curvature="0"
         id="path4440"
         d="m 282.70168,400.31346 c 0,0 -2.14287,6.35821 -6.83357,5.56522 -4.48501,-0.75821 -10.41553,-0.69968 -16.45554,2.43064 -12.35703,6.4042 -14.62405,24.61041 -23.81416,30.23249 -9.19011,5.62208 -22.4608,-5.67838 -31.21587,13.99195 -8.75507,19.67034 -24.44913,25.54197 -24.44913,25.54197 l 0,-130.78525 c 0,0 13.98721,30.63981 23.48245,21.51968 9.49523,-9.12013 20.81059,22.09527 30.2492,22.37313 9.43861,0.27787 13.67644,-7.01964 25.74751,-5.00616 5.92733,0.98869 11.88206,6.35459 16.4081,11.56058 4.69131,5.39607 6.88101,2.57575 6.88101,2.57575 z"
         inkscape:transform-center-x="-34.87132"
         style="opacity:1;fill:#3d3733;fill-opacity:1;stroke:none;stroke-width:3;stroke-linecap:butt;stroke-linejoin:round;stroke-miterlimit:4;stroke-dasharray:none;stroke-dashoffset:0;stroke-opacity:1"
         transform="matrix(1.8472687,0,0,0.62153628,8.5356154,183.45971)" />
    </g>
  </g>
</svg>
