<?xml version="1.0" encoding="UTF-8" standalone="no"?>
<!-- Created with Inkscape (http://www.inkscape.org/) -->

<svg
   xmlns:dc="http://purl.org/dc/elements/1.1/"
   xmlns:cc="http://creativecommons.org/ns#"
   xmlns:rdf="http://www.w3.org/1999/02/22-rdf-syntax-ns#"
   xmlns:svg="http://www.w3.org/2000/svg"
   xmlns="http://www.w3.org/2000/svg"
   xmlns:sodipodi="http://sodipodi.sourceforge.net/DTD/sodipodi-0.dtd"
   xmlns:inkscape="http://www.inkscape.org/namespaces/inkscape"
   width="51.178902mm"
   height="64.812469mm"
   viewBox="0 0 181.34256 229.65048"
   id="svg5132"
   version="1.1"
   inkscape:version="0.91 r13725"
   sodipodi:docname="rust-belgium.svg"
   inkscape:export-filename="/Volumes/FilesOSX/Users/azerupi/Programming/Rust/rust-lang.be/assets/images/rust-belgium.png"
   inkscape:export-xdpi="200"
   inkscape:export-ydpi="200">
  <defs
     id="defs5134">
    <clipPath
       clipPathUnits="userSpaceOnUse"
       id="clipPath4169">
      <path
         d="M 0,800 1200,800 1200,0 0,0 0,800 Z"
         id="path4171"
         inkscape:connector-curvature="0" />
    </clipPath>
    <clipPath
       id="clipPath4444"
       clipPathUnits="userSpaceOnUse">
      <path
         sodipodi:nodetypes="csszzcczzssc"
         inkscape:connector-curvature="0"
         id="path4446"
         d="m 550.75094,119.48511 c 0,0 -11.48397,13.69441 -36.62215,11.98646 -24.03586,-1.63305 -55.81843,-1.50698 -88.18777,5.23515 C 359.7178,150.50018 347.56849,189.713 298.31727,201.82193 249.06606,213.93085 177.94639,189.59174 131.02662,231.958 84.106858,274.32429 -2.385516e-5,286.9707 -2.385516e-5,286.9707 l 0,-281.6873055 c 0,0 74.95960985516,65.9924985 125.84606385516,46.3494205 50.8864,-19.643077 111.52715,47.589136 162.11011,48.187595 50.58297,0.59848 73.29415,-15.11901 137.98487,-10.782345 31.76547,2.129456 63.67779,13.686615 87.93353,24.899355 25.14145,11.62214 36.87639,5.54769 36.87639,5.54769 z"
         inkscape:transform-center-x="-34.87132"
         style="opacity:1;fill:#3d3733;fill-opacity:1;stroke:none;stroke-width:3;stroke-linecap:butt;stroke-linejoin:round;stroke-miterlimit:4;stroke-dasharray:none;stroke-dashoffset:0;stroke-opacity:1" />
    </clipPath>
    <clipPath
       clipPathUnits="userSpaceOnUse"
       id="clipPath5984">
      <rect
         style="opacity:1;fill:#289130;fill-opacity:0.56593407;stroke:none;stroke-width:3;stroke-linecap:butt;stroke-linejoin:round;stroke-miterlimit:4;stroke-dasharray:none;stroke-dashoffset:0;stroke-opacity:1"
         id="rect5986"
         width="122.67857"
         height="81.071426"
         x="273.21426"
         y="510.75507" />
    </clipPath>
  </defs>
  <sodipodi:namedview
     id="base"
     pagecolor="#ffffff"
     bordercolor="#666666"
     borderopacity="1.0"
     inkscape:pageopacity="0.0"
     inkscape:pageshadow="2"
     inkscape:zoom="1.4"
     inkscape:cx="58.221734"
     inkscape:cy="178.45113"
     inkscape:document-units="px"
     inkscape:current-layer="layer1"
     showgrid="false"
     inkscape:window-width="1920"
     inkscape:window-height="955"
     inkscape:window-x="0"
     inkscape:window-y="1"
     inkscape:window-maximized="1"
     fit-margin-top="0"
     fit-margin-left="0"
     fit-margin-right="0"
     fit-margin-bottom="0" />
  <metadata
     id="metadata5137">
    <rdf:RDF>
      <cc:Work
         rdf:about="">
        <dc:format>image/svg+xml</dc:format>
        <dc:type
           rdf:resource="http://purl.org/dc/dcmitype/StillImage" />
        <dc:title></dc:title>
      </cc:Work>
    </rdf:RDF>
  </metadata>
  <g
     inkscape:label="Layer 1"
     inkscape:groupmode="layer"
     id="layer1"
     transform="translate(-297.15077,-443.03682)">
    <g
       id="g6191"
       transform="translate(91.923882,82.327432)">
      <path
         inkscape:connector-curvature="0"
         d="m 290.22511,430.38327 a 5.3899405,5.3899405 0 1 1 10.77988,0 5.3899405,5.3899405 0 0 1 -10.77988,0 m -64.29949,48.80082 a 5.3899405,5.3899405 0 1 1 10.77988,0 5.3899405,5.3899405 0 0 1 -10.77988,0 m 128.59725,0.25146 a 5.3899405,5.3899405 0 1 1 10.77988,0 5.3899405,5.3899405 0 0 1 -10.77988,0 m -112.99452,7.38428 c 2.47993,-1.10122 3.60023,-4.00777 2.49901,-6.4929 l -2.39149,-5.40728 9.40465,0 0,42.39115 -18.97405,0 a 66.35974,66.35974 0 0 1 -2.14869,-25.33168 z m 39.34067,1.04227 0,-12.49502 22.39565,0 c 1.15673,0 8.16816,1.33708 8.16816,6.57961 0,4.35288 -5.3778,5.91367 -9.80005,5.91367 z m -30.57594,67.2754 a 5.3899405,5.3899405 0 1 1 10.77988,0 5.3899405,5.3899405 0 0 1 -10.77988,0 m 79.86233,0.25146 a 5.3899405,5.3899405 0 1 1 10.77988,0 5.3899405,5.3899405 0 0 1 -10.77988,0 m 1.66658,-12.22274 c -2.65508,-0.56883 -5.26681,1.1203 -5.83563,3.78059 l -2.70538,12.62508 a 66.35974,66.35974 0 0 1 -55.34053,-0.26533 l -2.70364,-12.62509 c -0.56883,-2.65682 -3.18055,-4.34941 -5.8339,-3.77885 l -11.1458,2.39321 a 66.35974,66.35974 0 0 1 -5.7628,-6.79292 l 54.23237,0 c 0.61392,0 1.02319,-0.11099 1.02319,-0.6694 l 0,-19.18389 c 0,-0.55842 -0.40927,-0.66941 -1.02319,-0.66941 l -15.86113,0 0,-12.16031 17.15486,0 c 1.56599,0 8.37279,0.44742 10.54923,9.14798 0.68154,2.67589 2.17817,11.37992 3.20136,14.1668 1.01972,3.12506 5.17143,9.36823 9.59541,9.36823 l 28.00064,0 a 66.35974,66.35974 0 0 1 -6.14606,7.11375 z M 361.93664,492.515 a 66.35974,66.35974 0 0 1 0.14047,11.52039 l -6.80853,0 c -0.68154,0 -0.95555,0.44743 -0.95555,1.1151 l 0,3.12679 c 0,7.36001 -4.14998,8.96069 -7.78663,9.36823 -3.46322,0.3902 -7.30278,-1.44981 -7.77622,-3.56902 -2.0429,-11.49091 -5.44717,-13.94482 -10.82323,-18.18498 6.67152,-4.23668 13.61359,-10.48679 13.61359,-18.85265 0,-9.03352 -6.19289,-14.72348 -10.41397,-17.51384 -5.92234,-3.90371 -12.47941,-4.68585 -14.24831,-4.68585 l -70.41433,0 A 66.35974,66.35974 0 0 1 283.59,433.88639 l 8.29996,8.70749 c 1.87642,1.96487 4.98413,2.0377 6.94726,0.15955 l 9.28673,-8.88265 a 66.35974,66.35974 0 0 1 45.42949,32.35525 l -6.35763,14.3593 c -1.09776,2.48513 0.0226,5.39168 2.50074,6.4929 z m 15.85593,0.23238 -0.21678,-2.21979 6.5484,-6.10791 c 1.33187,-1.2417 0.83415,-3.7407 -0.86885,-4.37542 l -8.37105,-3.13026 -0.65553,-2.16083 5.22172,-7.25249 c 1.06481,-1.47408 0.0867,-3.82741 -1.70647,-4.12223 l -8.82716,-1.43593 -1.06134,-1.98221 3.70949,-8.14214 c 0.75959,-1.65791 -0.65206,-3.77885 -2.47646,-3.70948 l -8.95895,0.31215 -1.41512,-1.71687 2.05851,-8.72657 c 0.41621,-1.77237 -1.38217,-3.57248 -3.15454,-3.15627 l -8.72483,2.05678 -1.72034,-1.41512 0.31389,-8.95896 c 0.0694,-1.81398 -2.05331,-3.23084 -3.70775,-2.47819 l -8.14041,3.71122 -1.98221,-1.06307 -1.43939,-8.82889 c -0.29135,-1.78971 -2.64642,-2.76781 -4.1205,-1.70647 l -7.25769,5.22172 -2.15736,-0.6538 -3.13026,-8.37279 c -0.63472,-1.70646 -3.13546,-2.19725 -4.37369,-0.87231 l -6.10791,6.5536 -2.21979,-0.21678 -4.71707,-7.62187 c -0.95382,-1.54345 -3.50832,-1.54345 -4.45866,0 l -4.71707,7.62187 -2.22153,0.21678 -6.10964,-6.5536 c -1.23823,-1.32494 -3.73897,-0.83415 -4.37369,0.87231 l -3.13026,8.37279 -2.1591,0.6538 -7.25595,-5.22172 c -1.47408,-1.06481 -3.83088,-0.0832 -4.12223,1.70647 l -1.4394,8.82889 -1.98221,1.06307 -8.1404,-3.71122 c -1.65444,-0.75612 -3.77712,0.66421 -3.70775,2.47819 l 0.31215,8.95896 -1.72034,1.41512 -8.72483,-2.05678 c -1.77237,-0.41274 -3.57249,1.3839 -3.15627,3.15627 l 2.05504,8.72657 -1.41165,1.71687 -8.95896,-0.31215 c -1.80705,-0.052 -3.23084,2.05157 -2.47819,3.70948 l 3.71122,8.14214 -1.06307,1.98221 -8.82716,1.43593 c -1.79318,0.29135 -2.76434,2.64815 -1.70647,4.12223 l 5.22173,7.25249 -0.65554,2.16083 -8.37279,3.13026 c -1.69953,0.63472 -2.19725,3.13372 -0.86884,4.37542 l 6.55013,6.10791 -0.21678,2.21979 -7.62014,4.71707 c -1.54345,0.95382 -1.54345,3.50831 0,4.45866 l 7.62014,4.71707 0.21678,2.21979 -6.55013,6.10964 c -1.32841,1.23823 -0.83069,3.7355 0.86884,4.37369 l 8.37279,3.13026 0.65554,2.16083 -5.22173,7.25423 c -1.06133,1.47755 -0.085,3.83261 1.70821,4.12049 l 8.82542,1.43593 1.06307,1.98568 -3.71122,8.13867 c -0.75612,1.65444 0.67114,3.78232 2.47819,3.70949 l 8.95549,-0.3139 1.41512,1.72034 -2.05504,8.72831 c -0.41622,1.7689 1.3839,3.56554 3.15627,3.14933 l 8.72483,-2.05504 1.72034,1.41165 -0.31215,8.96069 c -0.0694,1.81399 2.05331,3.23257 3.70775,2.47646 l 8.1404,-3.70949 1.98221,1.06308 1.4394,8.82368 c 0.29135,1.79665 2.64815,2.76781 4.12223,1.70994 l 7.25249,-5.22519 2.16083,0.65726 3.13026,8.36933 c 0.63472,1.69953 3.13546,2.20072 4.37369,0.86884 l 6.10964,-6.55013 2.22153,0.22198 4.71706,7.62014 c 0.95035,1.53651 3.50485,1.53998 4.45867,0 l 4.71706,-7.62014 2.2198,-0.22198 6.1079,6.55013 c 1.23823,1.33188 3.73897,0.83069 4.37369,-0.86884 l 3.13026,-8.36933 2.16083,-0.65726 7.25423,5.22519 c 1.47408,1.05787 3.82914,0.0832 4.12049,-1.70994 l 1.4394,-8.82368 1.98221,-1.06308 8.1404,3.70949 c 1.65444,0.75611 3.77365,-0.659 3.70775,-2.47646 l -0.31215,-8.96069 1.7186,-1.41165 8.72484,2.05504 c 1.77237,0.41621 3.57075,-1.38043 3.15454,-3.14933 l -2.05505,-8.72831 1.41165,-1.72034 8.95896,0.3139 c 1.80705,0.0728 3.23604,-2.05505 2.47646,-3.70949 l -3.70949,-8.13867 1.06134,-1.98568 8.82716,-1.43593 c 1.79664,-0.28788 2.77127,-2.64294 1.70646,-4.12049 l -5.22172,-7.25423 0.65553,-2.16083 8.37106,-3.13026 c 1.703,-0.63819 2.20072,-3.13546 0.86884,-4.37369 l -6.54839,-6.10964 0.21677,-2.21979 7.62014,-4.71707 c 1.54346,-0.95035 1.54519,-3.50484 0.002,-4.45866 z"
         id="path5730" />
      <g
         transform="matrix(1.7342151,0,0,1.7342151,-806.53801,-507.37085)"
         id="g5915">
        <g
           transform="matrix(0.34873895,0,0,0.34873895,501.05565,364.10663)"
           id="layer3"
           inkscape:label="Flag">
          <rect
             style="opacity:1;fill:#85634d;fill-opacity:1;stroke:none;stroke-width:3;stroke-linecap:butt;stroke-linejoin:round;stroke-miterlimit:4;stroke-dasharray:none;stroke-dashoffset:0;stroke-opacity:1"
             id="rect4339"
             width="7.0710678"
             height="148.43077"
             x="332.7316"
             y="391.27905" />
          <path
             style="opacity:1;fill:#3d3733;fill-opacity:1;stroke:none;stroke-width:3;stroke-linecap:butt;stroke-linejoin:round;stroke-miterlimit:4;stroke-dasharray:none;stroke-dashoffset:0;stroke-opacity:1"
             d="m 329.76723,537.47288 c 2.44922,-1.4324 10.81754,-1.27628 12.99981,0 2.18227,1.27628 5.45152,11.22479 5.45152,11.22479 l -23.90285,0 c 0,0 3.0023,-9.79239 5.45152,-11.22479 z"
             id="rect4336"
             inkscape:connector-curvature="0"
             sodipodi:nodetypes="zzccz" />
          <g
             id="g4407"
             transform="matrix(0.3446941,0,0,0.28857452,340.92098,389.7544)"
             clip-path="url(#clipPath4444)">
            <g
               id="g5988" />
            <g
               id="g5992">
              <rect
                 transform="translate(-3.8251706e-5,4.8963263e-5)"
                 id="rect4395"
                 height="390"
                 width="586.27185"
                 x="0"
                 y="0"
                 style="fill:#ed2939" />
              <rect
                 style="fill:#fae042"
                 y="0"
                 x="0"
                 width="339.80701"
                 height="390"
                 id="rect4397" />
              <rect
                 y="0"
                 x="0"
                 width="150"
                 height="390"
                 id="rect4399" />
            </g>
          </g>
        </g>
      </g>
      <path
         transform="matrix(1.7342151,0,0,1.7342151,-283.8251,-433.45111)"
         clip-path="url(#clipPath5984)"
         id="path5968"
         d="m 331.01443,498.1126 a 3.108,3.108 0 0 1 6.216,0 3.108,3.108 0 0 1 -6.216,0 m -37.077,28.14 a 3.108,3.108 0 1 1 6.216,0 3.108,3.108 0 0 1 -6.216,0 m 74.153,0.145 a 3.108,3.108 0 0 1 6.216,0 3.108,3.108 0 0 1 -6.216,0 m -65.156,4.258 c 1.43,-0.635 2.076,-2.311 1.441,-3.744 l -1.379,-3.118 5.423,0 0,24.444 -10.941,0 a 38.265,38.265 0 0 1 -1.239,-14.607 z m 22.685,0.601 0,-7.205 12.914,0 c 0.667,0 4.71,0.771 4.71,3.794 0,2.51 -3.101,3.41 -5.651,3.41 z m -17.631,38.793 a 3.108,3.108 0 1 1 6.216,0 3.108,3.108 0 0 1 -6.216,0 m 46.051,0.145 a 3.108,3.108 0 0 1 6.216,0 3.108,3.108 0 0 1 -6.216,0 m 0.961,-7.048 c -1.531,-0.328 -3.037,0.646 -3.365,2.18 l -1.56,7.28 a 38.265,38.265 0 0 1 -31.911,-0.153 l -1.559,-7.28 c -0.328,-1.532 -1.834,-2.508 -3.364,-2.179 l -6.427,1.38 a 38.265,38.265 0 0 1 -3.323,-3.917 l 31.272,0 c 0.354,0 0.59,-0.064 0.59,-0.386 l 0,-11.062 c 0,-0.322 -0.236,-0.386 -0.59,-0.386 l -9.146,0 0,-7.012 9.892,0 c 0.903,0 4.828,0.258 6.083,5.275 0.393,1.543 1.256,6.562 1.846,8.169 0.588,1.802 2.982,5.402 5.533,5.402 l 16.146,0 a 38.265,38.265 0 0 1 -3.544,4.102 z m 17.365,-29.207 a 38.265,38.265 0 0 1 0.081,6.643 l -3.926,0 c -0.393,0 -0.551,0.258 -0.551,0.643 l 0,1.803 c 0,4.244 -2.393,5.167 -4.49,5.402 -1.997,0.225 -4.211,-0.836 -4.484,-2.058 -1.178,-6.626 -3.141,-8.041 -6.241,-10.486 3.847,-2.443 7.85,-6.047 7.85,-10.871 0,-5.209 -3.571,-8.49 -6.005,-10.099 -3.415,-2.251 -7.196,-2.702 -8.216,-2.702 l -40.603,0 a 38.265,38.265 0 0 1 21.408,-12.082 l 4.786,5.021 c 1.082,1.133 2.874,1.175 4.006,0.092 l 5.355,-5.122 a 38.265,38.265 0 0 1 26.196,18.657 l -3.666,8.28 c -0.633,1.433 0.013,3.109 1.442,3.744 z m 9.143,0.134 -0.125,-1.28 3.776,-3.522 c 0.768,-0.716 0.481,-2.157 -0.501,-2.523 l -4.827,-1.805 -0.378,-1.246 3.011,-4.182 c 0.614,-0.85 0.05,-2.207 -0.984,-2.377 l -5.09,-0.828 -0.612,-1.143 2.139,-4.695 c 0.438,-0.956 -0.376,-2.179 -1.428,-2.139 l -5.166,0.18 -0.816,-0.99 1.187,-5.032 c 0.24,-1.022 -0.797,-2.06 -1.819,-1.82 l -5.031,1.186 -0.992,-0.816 0.181,-5.166 c 0.04,-1.046 -1.184,-1.863 -2.138,-1.429 l -4.694,2.14 -1.143,-0.613 -0.83,-5.091 c -0.168,-1.032 -1.526,-1.596 -2.376,-0.984 l -4.185,3.011 -1.244,-0.377 -1.805,-4.828 c -0.366,-0.984 -1.808,-1.267 -2.522,-0.503 l -3.522,3.779 -1.28,-0.125 -2.72,-4.395 c -0.55,-0.89 -2.023,-0.89 -2.571,0 l -2.72,4.395 -1.281,0.125 -3.523,-3.779 c -0.714,-0.764 -2.156,-0.481 -2.522,0.503 l -1.805,4.828 -1.245,0.377 -4.184,-3.011 c -0.85,-0.614 -2.209,-0.048 -2.377,0.984 l -0.83,5.091 -1.143,0.613 -4.694,-2.14 c -0.954,-0.436 -2.178,0.383 -2.138,1.429 l 0.18,5.166 -0.992,0.816 -5.031,-1.186 c -1.022,-0.238 -2.06,0.798 -1.82,1.82 l 1.185,5.032 -0.814,0.99 -5.166,-0.18 c -1.042,-0.03 -1.863,1.183 -1.429,2.139 l 2.14,4.695 -0.613,1.143 -5.09,0.828 c -1.034,0.168 -1.594,1.527 -0.984,2.377 l 3.011,4.182 -0.378,1.246 -4.828,1.805 c -0.98,0.366 -1.267,1.807 -0.501,2.523 l 3.777,3.522 -0.125,1.28 -4.394,2.72 c -0.89,0.55 -0.89,2.023 0,2.571 l 4.394,2.72 0.125,1.28 -3.777,3.523 c -0.766,0.714 -0.479,2.154 0.501,2.522 l 4.828,1.805 0.378,1.246 -3.011,4.183 c -0.612,0.852 -0.049,2.21 0.985,2.376 l 5.089,0.828 0.613,1.145 -2.14,4.693 c -0.436,0.954 0.387,2.181 1.429,2.139 l 5.164,-0.181 0.816,0.992 -1.185,5.033 c -0.24,1.02 0.798,2.056 1.82,1.816 l 5.031,-1.185 0.992,0.814 -0.18,5.167 c -0.04,1.046 1.184,1.864 2.138,1.428 l 4.694,-2.139 1.143,0.613 0.83,5.088 c 0.168,1.036 1.527,1.596 2.377,0.986 l 4.182,-3.013 1.246,0.379 1.805,4.826 c 0.366,0.98 1.808,1.269 2.522,0.501 l 3.523,-3.777 1.281,0.128 2.72,4.394 c 0.548,0.886 2.021,0.888 2.571,0 l 2.72,-4.394 1.28,-0.128 3.522,3.777 c 0.714,0.768 2.156,0.479 2.522,-0.501 l 1.805,-4.826 1.246,-0.379 4.183,3.013 c 0.85,0.61 2.208,0.048 2.376,-0.986 l 0.83,-5.088 1.143,-0.613 4.694,2.139 c 0.954,0.436 2.176,-0.38 2.138,-1.428 l -0.18,-5.167 0.991,-0.814 5.031,1.185 c 1.022,0.24 2.059,-0.796 1.819,-1.816 l -1.185,-5.033 0.814,-0.992 5.166,0.181 c 1.042,0.042 1.866,-1.185 1.428,-2.139 l -2.139,-4.693 0.612,-1.145 5.09,-0.828 c 1.036,-0.166 1.598,-1.524 0.984,-2.376 l -3.011,-4.183 0.378,-1.246 4.827,-1.805 c 0.982,-0.368 1.269,-1.808 0.501,-2.522 l -3.776,-3.523 0.125,-1.28 4.394,-2.72 c 0.89,-0.548 0.891,-2.021 10e-4,-2.571 z"
         inkscape:connector-curvature="0" />
    </g>
  </g>
</svg>
